<svg id="Layer_1" xmlns="http://www.w3.org/2000/svg" xmlns:xlink="http://www.w3.org/1999/xlink" viewBox="0 0 312.5 317.2"><style>.st0{opacity:.75}.st1{fill:#1c203e}</style><g class="st0"><defs><path id="SVGID_1_" class="st0" d="M-12.9-8.5h334.6v334.6H-12.9z"/></defs><clipPath id="SVGID_2_"><use xlink:href="#SVGID_1_" overflow="visible"/></clipPath></g><path class="st1" d="M3 148.1c-.6-1.6-.9-5.5-.9-12.7v-5h-.8v5c0 7.2-.3 11.2-.9 12.7.3.5 1.3 2 1.3 2 0-.1 1-1.5 1.3-2zM3 162.2c-.6 1.6-.9 5.5-.9 12.7v5h-.8v-5c0-7.2-.3-11.2-.9-12.7.3-.5 1.3-2 1.3-2s1 1.5 1.3 2zM1 154.3c.5-.5.5-1.8.7-1.8.2 0 .1 1.2.7 1.8.5.6 1 .6 1 .8 0 .2-.4.2-1 .8-.5.5-.5 1.8-.7 1.8-.2 0-.1-1.2-.7-1.8-.5-.6-1-.6-1-.8.1-.2.5-.2 1-.8zM1.7 150.7c-.4 0-.6.3-.6.6 0 .4.3.6.6.6.4 0 .6-.3.6-.6s-.2-.6-.6-.6zM1.7 158.3c-.4 0-.6.3-.6.6 0 .4.3.6.6.6.4 0 .6-.3.6-.6s-.2-.6-.6-.6zM149.2 3c-1.6-.6-5.5-.9-12.7-.9h-5v-.8h5c7.2 0 11.2-.3 12.7-.9.5.3 2 1.3 2 1.3s-1.5 1-2 1.3z"/><path class="st1" d="M12.6 1.3c.2 6.3-5 11.5-11.3 11.3v57.5H2V13.4c6.2-.2 11.1-5.1 11.3-11.3h118.9v-.8H12.6z"/><path class="st1" d="M0 9.9c-.3 1.6 4.8 1.8 7-.5-3.2 1.4-6.7-1.1-7 .5zM9.9 0c-1.7.3.8 3.8-.5 7 2.3-2.2 2.2-7.3.5-7zM7.3.4c-1.3.6-2 2-1.9 3.1-.8-.5-1.7-.8-2.7-.8 0 1 .2 1.9.8 2.7C2.4 5.3 1 6 .4 7.3c2-.7 4.7 2.3 7 0 2.2-2.2-.8-5-.1-6.9zm.6 7.5c-.2.2-.2.6 0 .9.2.2.6.2.9 0 .2-.3.2-.7 0-.9-.3-.3-.7-.3-.9 0zM2.3 2.3c.2-.2.2-.6 0-.9-.3-.3-.7-.3-.9 0-.3.2-.3.6 0 .9.2.2.6.2.9 0zM157 1c.5.5 1.8.5 1.8.7 0 .2-1.2.1-1.8.7-.6.5-.6 1-.8 1-.2 0-.2-.4-.8-1-.5-.5-1.8-.5-1.8-.7 0-.2 1.2-.1 1.8-.7.6-.5.6-1 .8-1 .2.1.2.5.8 1zM160.7 1.7c0-.4-.3-.6-.6-.6-.4 0-.6.3-.6.6s.3.6.6.6.6-.2.6-.6zM153.1 1.7c0-.4-.3-.6-.6-.6-.4 0-.6.3-.6.6 0 .4.3.6.6.6s.6-.2.6-.6zM163.3 3c1.6-.6 5.5-.9 12.7-.9h5v-.8h-5c-7.2 0-11.2-.3-12.7-.9-.5.3-2 1.3-2 1.3s1.5 1 2 1.3z"/><path class="st1" d="M299.9 1.3c-.2 6.3 5 11.5 11.3 11.3v57.5h-.7V13.4c-6.2-.2-11.1-5.1-11.3-11.3h-119v-.8h119.7z"/><path class="st1" d="M305.5 9.4c2.2 2.3 7.2 2.2 7 .5-.3-1.6-3.8.9-7-.5zM303.1 7c-1.4-3.2 1.1-6.7-.5-7-1.7-.3-1.8 4.8.5 7zm2.1.3c2.2 2.2 5-.8 7 0-.6-1.3-2.1-2-3.1-1.9.5-.8.8-1.7.8-2.7-1 0-1.9.2-2.7.8.1-1.1-.5-2.5-1.9-3.1.6 1.9-2.4 4.7-.1 6.9zm-1.4.6c-.2.2-.2.6 0 .9.2.2.6.2.9 0 .2-.2.2-.6 0-.9-.3-.3-.7-.3-.9 0zm7.3-5.6c.2-.2.2-.6 0-.9-.2-.2-.6-.2-.9 0-.2.2-.2.6 0 .9.3.2.7.2.9 0zM309.5 148.1c.6-1.6.9-5.5.9-12.7v-5h.7v5c0 7.2.3 11.2.9 12.7-.3.5-1.3 2-1.3 2 .1-.1-.9-1.5-1.2-2zM309.5 162.2c.6 1.6.9 5.5.9 12.7v5h.7v-5c0-7.2.3-11.2.9-12.7-.3-.5-1.3-2-1.3-2 .1 0-.9 1.5-1.2 2zM311.5 154.3c-.5-.5-.5-1.8-.7-1.8-.2 0-.1 1.2-.7 1.8-.5.6-1 .6-1 .8 0 .2.4.2 1 .8.5.5.5 1.8.7 1.8.2 0 .1-1.2.7-1.8.5-.6 1-.6 1-.8-.1-.2-.5-.2-1-.8zM310.8 150.7c.4 0 .6.3.6.6 0 .4-.3.6-.6.6-.4 0-.6-.3-.6-.6s.3-.6.6-.6zM310.8 158.3c.4 0 .6.3.6.6 0 .4-.3.6-.6.6-.4 0-.6-.3-.6-.6s.3-.6.6-.6zM1.3 59.7H2v81.1h-.7z"/><path class="st1" d="M310.4 59.7h.7v81.1h-.7zM163.3 314.3c1.6.6 5.5.9 12.7.9h5v.7h-5c-7.2 0-11.2.3-12.7.9-.5-.3-2-1.3-2-1.3l2-1.2z"/><path class="st1" d="M299.9 315.9c-.2-6.3 5-11.5 11.3-11.3v-57.5h-.7v56.7c-6.2.2-11.1 5.1-11.3 11.3h-119v.7h119.7z"/><path class="st1" d="M312.5 307.3c.3-1.6-4.8-1.8-7 .5 3.2-1.3 6.7 1.1 7-.5zm-9.9 9.9c1.7-.3-.8-3.8.5-7-2.3 2.3-2.2 7.3-.5 7zm2.6-.3c1.3-.6 2-2.1 1.9-3.1.8.5 1.7.8 2.7.8 0-1-.2-1.9-.8-2.7 1.1.1 2.5-.5 3.1-1.9-2 .7-4.7-2.3-7 0-2.2 2.1.8 4.9.1 6.9zm-.6-7.5c.2-.2.2-.6 0-.9-.2-.2-.6-.2-.9 0-.2.2-.2.6 0 .9.3.2.7.2.9 0zm5.6 5.6c-.2.2-.2.6 0 .9.2.2.6.2.9 0 .2-.2.2-.6 0-.9-.2-.3-.6-.3-.9 0zM155.5 316.2c-.5-.5-1.8-.5-1.8-.7 0-.2 1.2-.1 1.8-.7.6-.5.6-1 .8-1 .2 0 .2.4.8 1 .5.5 1.8.5 1.8.7 0 .2-1.2.1-1.8.7-.6.5-.6 1-.8 1-.2 0-.2-.5-.8-1zM151.8 315.5c0 .4.3.6.6.6.4 0 .6-.3.6-.6s-.3-.6-.6-.6-.6.3-.6.6zM159.4 315.5c0 .4.3.6.6.6.4 0 .6-.3.6-.6 0-.4-.3-.6-.6-.6s-.6.3-.6.6zM149.2 314.3c-1.6.6-5.5.9-12.7.9h-5v.7h5c7.2 0 11.2.3 12.7.9.5-.3 2-1.3 2-1.3l-2-1.2z"/><path class="st1" d="M12.6 315.9c.2-6.3-5-11.5-11.3-11.3v-57.5H2v56.7c6.2.2 11.1 5.1 11.3 11.3h118.9v.7H12.6z"/><path class="st1" d="M7 307.8c-2.2-2.3-7.2-2.2-7-.5.3 1.6 3.8-.8 7 .5zm2.4 2.4c1.4 3.2-1.1 6.7.5 7 1.7.3 1.8-4.7-.5-7zm-2.1-.3c-2.2-2.2-5 .8-7 0 .6 1.3 2.1 2 3.1 1.9-.5.8-.8 1.7-.8 2.7 1 0 1.9-.2 2.7-.8-.1 1.1.5 2.5 1.9 3.1-.6-1.9 2.4-4.7.1-6.9zm1.5-.5c.2-.2.2-.6 0-.9-.2-.2-.6-.2-.9 0-.2.2-.2.6 0 .9.2.2.6.2.9 0zM1.4 315c-.2.2-.2.6 0 .9.2.2.6.2.9 0 .2-.2.2-.6 0-.9-.3-.3-.7-.3-.9 0zM310.4 176.5h.7v81.1h-.7zM1.3 176.5H2v81.1h-.7z"/></svg>